# xmcd
#
# Track frame offsets: 
#        150
#        19325
#        40250
#        56670
#        88255
#        113300
#        138632
#        164035
#        190325
#        213755
#        232320
#        253477
#
# Disc length: 3696 seconds
#
# Revision: 0
# Processed by: cddbd v1.5.2PL0 Copyright (c) Steve Scherf et al.
# Submitted via: ExactAudioCopy v1.0b3
#
DISCID=b50e6e0c
DTITLE=Huong Lan, Thanh Phong - Dung Noi Xa Nhau
DYEAR=1994
DGENRE=
TTITLE0=Dung noi xa nhau
TTITLE1=Huong Lan - Rung la thay chua
TTITLE2=Thanh Phong - Ke o mien xa
TTITLE3=Ai nho chang ai
TTITLE4=Thanh Phong - Tam su nguoi hat bai que huong
TTITLE5=Huong Lan - Xuoi dong
TTITLE6=Trang tan tren he pho
TTITLE7=Thanh Phong - Tam diep khuc
TTITLE8=Huong Lan - Tam su nguoi linh tre
TTITLE9=Quen
TTITLE10=Thanh Phong - Mot nguoi di xa
TTITLE11=Huong Lan - Nhung ngay xua than ai
EXTD=
EXTT0=
EXTT1=
EXTT2=
EXTT3=
EXTT4=
EXTT5=
EXTT6=
EXTT7=
EXTT8=
EXTT9=
EXTT10=
EXTT11=
PLAYORDER=
